<?xml version="1.0" encoding="UTF-8" standalone="no"?>
<!-- Generator: Adobe Illustrator 19.0.0, SVG Export Plug-In . SVG Version: 6.00 Build 0)  -->

<svg
   xmlns:dc="http://purl.org/dc/elements/1.1/"
   xmlns:cc="http://creativecommons.org/ns#"
   xmlns:rdf="http://www.w3.org/1999/02/22-rdf-syntax-ns#"
   xmlns:svg="http://www.w3.org/2000/svg"
   xmlns="http://www.w3.org/2000/svg"
   xmlns:sodipodi="http://sodipodi.sourceforge.net/DTD/sodipodi-0.dtd"
   xmlns:inkscape="http://www.inkscape.org/namespaces/inkscape"
   version="1.1"
   id="Capa_1"
   x="0px"
   y="0px"
   viewBox="0 0 54 54"
   style="enable-background:new 0 0 54 54;"
   xml:space="preserve"
   inkscape:version="0.91 r13725"
   sodipodi:docname="settings.svg"><metadata
   id="metadata43"><rdf:RDF><cc:Work
       rdf:about=""><dc:format>image/svg+xml</dc:format><dc:type
         rdf:resource="http://purl.org/dc/dcmitype/StillImage" /></cc:Work></rdf:RDF></metadata><defs
   id="defs41" /><sodipodi:namedview
   pagecolor="#ffffff"
   bordercolor="#666666"
   borderopacity="1"
   objecttolerance="10"
   gridtolerance="10"
   guidetolerance="10"
   inkscape:pageopacity="0"
   inkscape:pageshadow="2"
   inkscape:window-width="1920"
   inkscape:window-height="1017"
   id="namedview39"
   showgrid="false"
   inkscape:zoom="4.3703704"
   inkscape:cx="27"
   inkscape:cy="27"
   inkscape:window-x="-8"
   inkscape:window-y="-8"
   inkscape:window-maximized="1"
   inkscape:current-layer="Capa_1" />
<g
   id="g3">
	<path
   d="M51.22,21h-5.052c-0.812,0-1.481-0.447-1.792-1.197s-0.153-1.54,0.42-2.114l3.572-3.571   c0.525-0.525,0.814-1.224,0.814-1.966c0-0.743-0.289-1.441-0.814-1.967l-4.553-4.553c-1.05-1.05-2.881-1.052-3.933,0l-3.571,3.571   c-0.574,0.573-1.366,0.733-2.114,0.421C33.447,9.313,33,8.644,33,7.832V2.78C33,1.247,31.753,0,30.22,0H23.78   C22.247,0,21,1.247,21,2.78v5.052c0,0.812-0.447,1.481-1.197,1.792c-0.748,0.313-1.54,0.152-2.114-0.421l-3.571-3.571   c-1.052-1.052-2.883-1.05-3.933,0l-4.553,4.553c-0.525,0.525-0.814,1.224-0.814,1.967c0,0.742,0.289,1.44,0.814,1.966l3.572,3.571   c0.573,0.574,0.73,1.364,0.42,2.114S8.644,21,7.832,21H2.78C1.247,21,0,22.247,0,23.78v6.439C0,31.753,1.247,33,2.78,33h5.052   c0.812,0,1.481,0.447,1.792,1.197s0.153,1.54-0.42,2.114l-3.572,3.571c-0.525,0.525-0.814,1.224-0.814,1.966   c0,0.743,0.289,1.441,0.814,1.967l4.553,4.553c1.051,1.051,2.881,1.053,3.933,0l3.571-3.572c0.574-0.573,1.363-0.731,2.114-0.42   c0.75,0.311,1.197,0.98,1.197,1.792v5.052c0,1.533,1.247,2.78,2.78,2.78h6.439c1.533,0,2.78-1.247,2.78-2.78v-5.052   c0-0.812,0.447-1.481,1.197-1.792c0.751-0.312,1.54-0.153,2.114,0.42l3.571,3.572c1.052,1.052,2.883,1.05,3.933,0l4.553-4.553   c0.525-0.525,0.814-1.224,0.814-1.967c0-0.742-0.289-1.44-0.814-1.966l-3.572-3.571c-0.573-0.574-0.73-1.364-0.42-2.114   S45.356,33,46.168,33h5.052c1.533,0,2.78-1.247,2.78-2.78V23.78C54,22.247,52.753,21,51.22,21z M52,30.22   C52,30.65,51.65,31,51.22,31h-5.052c-1.624,0-3.019,0.932-3.64,2.432c-0.622,1.5-0.295,3.146,0.854,4.294l3.572,3.571   c0.305,0.305,0.305,0.8,0,1.104l-4.553,4.553c-0.304,0.304-0.799,0.306-1.104,0l-3.571-3.572c-1.149-1.149-2.794-1.474-4.294-0.854   c-1.5,0.621-2.432,2.016-2.432,3.64v5.052C31,51.65,30.65,52,30.22,52H23.78C23.35,52,23,51.65,23,51.22v-5.052   c0-1.624-0.932-3.019-2.432-3.64c-0.503-0.209-1.021-0.311-1.533-0.311c-1.014,0-1.997,0.4-2.761,1.164l-3.571,3.572   c-0.306,0.306-0.801,0.304-1.104,0l-4.553-4.553c-0.305-0.305-0.305-0.8,0-1.104l3.572-3.571c1.148-1.148,1.476-2.794,0.854-4.294   C10.851,31.932,9.456,31,7.832,31H2.78C2.35,31,2,30.65,2,30.22V23.78C2,23.35,2.35,23,2.78,23h5.052   c1.624,0,3.019-0.932,3.64-2.432c0.622-1.5,0.295-3.146-0.854-4.294l-3.572-3.571c-0.305-0.305-0.305-0.8,0-1.104l4.553-4.553   c0.304-0.305,0.799-0.305,1.104,0l3.571,3.571c1.147,1.147,2.792,1.476,4.294,0.854C22.068,10.851,23,9.456,23,7.832V2.78   C23,2.35,23.35,2,23.78,2h6.439C30.65,2,31,2.35,31,2.78v5.052c0,1.624,0.932,3.019,2.432,3.64   c1.502,0.622,3.146,0.294,4.294-0.854l3.571-3.571c0.306-0.305,0.801-0.305,1.104,0l4.553,4.553c0.305,0.305,0.305,0.8,0,1.104   l-3.572,3.571c-1.148,1.148-1.476,2.794-0.854,4.294c0.621,1.5,2.016,2.432,3.64,2.432h5.052C51.65,23,52,23.35,52,23.78V30.22z"
   id="path5" />
	<path
   d="M27,18c-4.963,0-9,4.037-9,9s4.037,9,9,9s9-4.037,9-9S31.963,18,27,18z M27,34c-3.859,0-7-3.141-7-7s3.141-7,7-7   s7,3.141,7,7S30.859,34,27,34z"
   id="path7" />
</g>
<g
   id="g9">
</g>
<g
   id="g11">
</g>
<g
   id="g13">
</g>
<g
   id="g15">
</g>
<g
   id="g17">
</g>
<g
   id="g19">
</g>
<g
   id="g21">
</g>
<g
   id="g23">
</g>
<g
   id="g25">
</g>
<g
   id="g27">
</g>
<g
   id="g29">
</g>
<g
   id="g31">
</g>
<g
   id="g33">
</g>
<g
   id="g35">
</g>
<g
   id="g37">
</g>
<path
   style="fill:#ffffff"
   d="m 22.019945,53.079945 -0.854691,-0.782766 -0.114407,-3.541682 c -0.124799,-3.863421 -0.282215,-4.328592 -1.546602,-4.570294 -0.998511,-0.190879 -1.63763,0.214352 -4.002433,2.537725 -2.245725,2.206383 -2.267003,2.220292 -3.396136,2.220292 l -1.136252,0 -2.967763,-2.991817 -2.9677627,-2.99182 0,-1.094852 c 0,-1.081144 0.030082,-1.125735 2.4025424,-3.561341 2.1376332,-2.194528 2.4025424,-2.556168 2.4025424,-3.279807 0,-0.529534 -0.1925192,-1.037326 -0.5517526,-1.455316 C 8.7360891,32.926983 8.7315444,32.926145 5.1860534,32.811864 1.8219432,32.70343 1.6058333,32.668478 1.0467801,32.142415 0.20480999,31.350128 0.00255216,30.349654 0.00255216,26.977119 c 0,-3.478822 0.21535166,-4.448284 1.16576574,-5.248005 0.6782899,-0.570743 0.7877641,-0.586741 4.0151439,-0.586741 l 3.3178419,0 0.6688397,-0.66884 c 0.4920322,-0.492032 0.6688397,-0.887038 0.6688397,-1.494257 0,-0.737359 -0.2563138,-1.09132 -2.4025424,-3.317833 -2.362036,-2.450394 -2.4025424,-2.510692 -2.4025424,-3.57644 0,-1.079198 0.01241,-1.096578 2.7872301,-3.9033358 2.8718436,-2.9048986 3.7552416,-3.4728965 4.9391836,-3.1757459 0.33489,0.084052 1.590757,1.1106065 2.790815,2.2812327 2.98382,2.91064 3.507774,3.134719 4.795724,2.0509804 l 0.703996,-0.5923738 8.47e-4,-3.2402533 c 7.32e-4,-2.8100497 0.06016,-3.3375107 0.447509,-3.9727886 0.783266,-1.2846003 1.386674,-1.44129198 5.546628,-1.44033795 3.295396,7.5509e-4 3.814862,0.05285344 4.462119,0.44750839 1.248134,0.76102576 1.441203,1.43238556 1.441203,5.01145866 l 0,3.1944128 0.703997,0.5923738 c 1.287948,1.0837386 1.811904,0.8596596 4.795724,-2.0509804 1.200059,-1.1706262 2.455925,-2.1971808 2.790814,-2.2812327 1.183943,-0.2971506 2.06734,0.2708473 4.939183,3.1757459 2.77482,2.8067578 2.787231,2.8241378 2.787231,3.9033358 0,1.065748 -0.04051,1.126046 -2.402543,3.57644 -2.146227,2.226513 -2.402542,2.580474 -2.402542,3.317833 0,0.607219 0.176806,1.002225 0.66884,1.494257 l 0.668838,0.66884 3.317843,0 c 3.227381,0 3.336854,0.016 4.015145,0.586741 0.950413,0.799721 1.165766,1.769183 1.165766,5.248005 0,3.372535 -0.20226,4.373009 -1.04423,5.165296 -0.559053,0.526063 -0.775163,0.561015 -4.139271,0.669449 -3.545492,0.114281 -3.550038,0.115119 -4.101179,0.756403 -0.359233,0.41799 -0.551752,0.925782 -0.551752,1.455316 0,0.723639 0.264909,1.085279 2.402542,3.279807 2.372461,2.435606 2.402543,2.480197 2.402543,3.561341 l 0,1.094852 -2.967763,2.99182 -2.967762,2.991817 -1.136254,0 c -1.129133,0 -1.15041,-0.01391 -3.396135,-2.220292 -2.331912,-2.29106 -3.133524,-2.797317 -4.060786,-2.564588 -1.211493,0.304066 -1.364875,0.777856 -1.488249,4.597157 l -0.114407,3.541682 -0.85469,0.782766 -0.854692,0.782767 -4.125364,0 -4.125364,0 -0.854691,-0.782767 z m 8.824084,-1.335774 c 0.133851,-0.161282 0.272043,-1.765352 0.314033,-3.645151 0.06655,-2.979219 0.12887,-3.429737 0.553655,-4.002222 0.843002,-1.136123 1.86713,-1.674764 3.184259,-1.674764 1.469958,0 2.112274,0.408082 4.448273,2.826124 0.937431,0.970353 1.951562,1.826308 2.253624,1.90212 0.466727,0.117142 0.908918,-0.218963 2.944409,-2.237997 1.31736,-1.306714 2.497056,-2.56009 2.621542,-2.785286 0.188193,-0.340436 -0.142894,-0.79053 -1.964403,-2.670515 -2.953498,-3.048309 -3.445896,-4.363962 -2.350318,-6.279882 0.96951,-1.695458 1.355649,-1.837641 5.340394,-1.966429 2.807867,-0.09075 3.584607,-0.185377 3.756405,-0.457627 0.329937,-0.522857 0.284783,-7.169314 -0.05099,-7.505084 -0.183021,-0.183021 -1.193933,-0.275002 -3.031779,-0.275853 -1.516462,-6.87e-4 -3.14013,-0.107625 -3.60815,-0.237606 -1.670632,-0.463981 -2.924478,-2.029293 -2.924478,-3.650948 0,-1.259395 0.623069,-2.239601 2.845519,-4.476549 1.20361,-1.21146 2.18838,-2.311619 2.18838,-2.444797 0,-0.375931 -5.080522,-5.4345864 -5.458078,-5.4345864 -0.1843,0 -1.385296,1.0217745 -2.668886,2.2706101 -1.783183,1.7349053 -2.55736,2.3308093 -3.281383,2.5257683 -1.191562,0.320855 -2.467626,0.01159 -3.485244,-0.844679 -1.149926,-0.9675996 -1.352172,-1.738945 -1.352172,-5.157062 0,-2.0675806 -0.08848,-3.1390467 -0.274576,-3.3251458 -0.384386,-0.3843856 -7.30375,-0.3843856 -7.688136,0 -0.186098,0.1860991 -0.274576,1.2575652 -0.274576,3.3251458 0,3.418117 -0.202246,4.1894624 -1.352172,5.157062 -1.392868,1.172021 -3.30901,1.257393 -4.751088,0.211681 C 16.422389,10.632561 15.310043,9.5902799 14.306215,8.5743195 13.302388,7.5583589 12.318514,6.7271186 12.119829,6.7271186 c -0.395468,0 -5.4842358,5.0426984 -5.4842358,5.4345864 0,0.133178 0.9847708,1.233337 2.1883795,2.444797 2.2224513,2.236948 2.8455193,3.217154 2.8455193,4.476549 0,1.621655 -1.253845,3.186967 -2.9244792,3.650948 -0.4680198,0.129981 -2.0916865,0.236905 -3.6081484,0.237606 -1.837847,9.15e-4 -2.8487576,0.09283 -3.0317797,0.275853 -0.3357707,0.33577 -0.3809243,6.982227 -0.050987,7.505084 0.1717978,0.27225 0.9485368,0.366878 3.7564045,0.457627 3.984746,0.128788 4.3708845,0.270971 5.3403945,1.966429 1.095577,1.91592 0.603179,3.231573 -2.350317,6.279882 -1.8215106,1.879985 -2.1525958,2.330079 -1.964404,2.670515 0.1244869,0.225196 1.304181,1.478572 2.6215426,2.785286 2.0354904,2.019034 2.4776824,2.355139 2.9444084,2.237997 0.302063,-0.07581 1.316193,-0.931767 2.253624,-1.90212 2.305259,-2.386221 2.986886,-2.826124 4.379068,-2.826124 1.382504,0 2.255031,0.430618 3.091065,1.525534 0.624259,0.817563 0.643031,0.926997 0.716054,4.174072 0.04192,1.863989 0.180408,3.461521 0.314033,3.622531 0.173619,0.209197 1.225734,0.288032 3.844029,0.288032 2.618295,0 3.67041,-0.07884 3.844029,-0.288032 z"
   id="path3371"
   inkscape:connector-curvature="0" /><path
   style="fill:#ffffff"
   d="m 24.31227,35.465185 c -0.534396,-0.174028 -1.483987,-0.645195 -2.110203,-1.047037 -5.81861,-3.733791 -5.243416,-12.39132 1.027499,-15.46539 1.248659,-0.612105 1.57731,-0.670555 3.770434,-0.670555 2.193124,0 2.521775,0.05845 3.770434,0.670555 3.412461,1.672825 5.509903,5.477788 5.04975,9.160733 -0.2213,1.771223 -1.503369,4.233851 -2.797007,5.372557 -1.789369,1.575066 -3.271445,2.158816 -5.667144,2.232135 -1.310025,0.04009 -2.42949,-0.05296 -3.043763,-0.252998 z m 5.243697,-1.86692 c 1.437471,-0.475451 3.006783,-1.905975 3.744083,-3.412964 1.742199,-3.560925 0.36919,-7.732528 -3.118668,-9.475432 -2.98697,-1.492606 -6.6634,-0.709555 -8.686784,1.850218 -2.142402,2.710343 -2.047173,6.579148 0.225663,9.167765 1.924322,2.191682 4.793625,2.876595 7.835706,1.870413 z"
   id="path3373"
   inkscape:connector-curvature="0" /></svg>